<?xml version="1.0" standalone="no"?>
<!DOCTYPE svg PUBLIC "-//W3C//DTD SVG 20010904//EN"
 "http://www.w3.org/TR/2001/REC-SVG-20010904/DTD/svg10.dtd">
<svg version="1.0" xmlns="http://www.w3.org/2000/svg"
 width="120.000000pt" height="71.000000pt" viewBox="0 0 120.000000 71.000000"
 preserveAspectRatio="xMidYMid meet">

<g transform="translate(0.000000,71.000000) scale(0.100000,-0.100000)"
fill="#000000" stroke="none">
<path d="M1036 663 c-29 -27 -60 -59 -67 -71 -7 -13 -26 -30 -41 -38 -15 -8
-34 -27 -42 -42 -21 -41 -117 -147 -133 -147 -8 0 -43 -31 -79 -70 l-64 -70
85 120 c46 66 85 124 85 128 0 17 -49 -20 -120 -92 -41 -42 -79 -76 -85 -77
-5 0 -23 -6 -38 -12 -16 -7 -40 -12 -55 -12 -14 0 -37 -10 -51 -22 -32 -28 30
43 119 135 35 37 58 67 50 67 -8 0 -68 -43 -133 -95 -66 -52 -124 -95 -130
-96 -7 0 -85 0 -174 1 -109 1 -163 -2 -163 -9 0 -7 58 -11 174 -11 l175 0 78
61 78 62 -71 -74 c-118 -123 -152 -169 -126 -169 4 0 42 32 85 70 43 39 83 70
90 70 21 0 40 -17 33 -29 -4 -7 1 -11 13 -11 11 0 35 16 53 36 140 156 147
151 19 -12 -134 -169 -129 -194 10 -51 49 50 87 83 83 72 -3 -11 20 7 53 41
34 34 73 64 89 68 40 10 144 64 172 89 12 11 22 32 22 45 0 14 15 41 35 63 36
40 80 117 71 126 -2 3 -14 -12 -24 -34 -11 -21 -39 -56 -61 -78 -32 -30 -41
-47 -41 -72 0 -27 -5 -35 -27 -44 -16 -6 -41 -20 -58 -33 -31 -22 -85 -49 -85
-41 0 2 23 16 50 31 28 15 50 31 50 37 0 5 -17 -1 -37 -13 -27 -16 -33 -17
-23 -5 8 9 39 30 69 46 41 22 48 28 26 24 -29 -6 -27 -4 28 52 31 32 57 64 57
70 0 6 11 20 25 31 14 11 25 23 25 26 0 16 -24 2 -74 -41z m-16 -46 c0 -2 -10
-12 -22 -23 l-23 -19 19 23 c18 21 26 27 26 19z m-95 -97 c-16 -16 -31 -27
-34 -24 -6 6 45 54 56 54 4 0 -6 -13 -22 -30z"/>
</g>
</svg>
